<?xml version="1.0" standalone="no"?>
<!DOCTYPE svg PUBLIC "-//W3C//DTD SVG 20010904//EN"
 "http://www.w3.org/TR/2001/REC-SVG-20010904/DTD/svg10.dtd">
<svg version="1.0" xmlns="http://www.w3.org/2000/svg"
 width="1262.000000pt" height="1280.000000pt" viewBox="0 0 1262.000000 1280.000000"
 preserveAspectRatio="xMidYMid meet">
<g transform="translate(0.000000,1280.000000) scale(0.100000,-0.100000)"
fill="#9e9e9e" stroke="none">
<path d="M664 12204 c-57 -20 -118 -75 -146 -132 l-23 -47 0 -5650 c0 -5156 1
-5653 16 -5685 24 -52 65 -97 118 -128 l46 -27 2195 0 2195 0 41 22 c48 25
100 81 123 132 15 33 16 494 19 5666 2 5081 1 5635 -14 5683 -11 39 -28 67
-62 101 -89 89 134 81 -2306 80 -1867 0 -2167 -3 -2202 -15z"/>
<path d="M7533 12199 c-67 -26 -128 -93 -148 -163 -13 -45 -15 -727 -13 -5681
3 -5172 4 -5633 19 -5666 23 -51 75 -107 123 -132 l41 -22 2195 0 2195 0 41
22 c48 25 100 81 123 132 15 33 16 492 16 5686 l0 5650 -23 47 c-13 27 -42 64
-65 83 -81 70 88 65 -2296 64 -2133 0 -2157 0 -2208 -20z"/>
</g>
</svg>
